# xmcd
#
# Track frame offsets:
#	150
#	7425
#	15139
#	22884
#	31471
#	39797
#	49587
#	59358
#	67512
#	75756
#	87318
#	99482
#	109550
#	118471
#	126438
#	137777
#	145785
#	156529
#	172421
#	184811
#	207463
#	224908
#	242757
#	253782
#	267346
#	276204
#	284566
#	295802
#	304873
#	313597
#	322454
#
# Disc length: 4410 seconds
#
# Revision: 1
# Processed by: cddbd v1.5.1PL2 Copyright (c) Steve Scherf et al.
# Submitted via: audiograbber 1.83.01
#
DISCID=da11381f
DTITLE=Various Artist - The Best Of Spade Records
DYEAR=1900
DGENRE=Rock and Roll
TTITLE0=Vern Pullens - Bop Crazy Baby
TTITLE1=Vern Pullens - Rock On Mabel
TTITLE2=Vern Pullens - Long Gone
TTITLE3=Vern Pullens - You Don't  Mean To Make Me Cry
TTITLE4=Vern Pullens - Mama Don't Allow No Boppin'
TTITLE5=Vern Pullens - It's My Life
TTITLE6=Vern Pullens - Would You Be Happy
TTITLE7=Royce Porter - A Woman Can Make You Blue
TTITLE8=Royce Porter - A Woman Can Make You Blue(a.t.)
TTITLE9=Royce Porter - Love Made Of This
TTITLE10=Royce Porter - I End Up Crying
TTITLE11=Bennie Hess - Boppin' The Rock
TTITLE12=Bennie Hess - Bennie Hess Boogie
TTITLE13=Bennie Hess - Jungle Land Rock
TTITLE14=Bennie Hess - Wild Hog
TTITLE15=Bennie Hess - You Called Me Honey
TTITLE16=Bennie Hess - Blue Monday Night
TTITLE17=Bennie Hess - Milk Cow Blues
TTITLE18=Bennie Hess - Tennessee Mama Blues
TTITLE19=Bennie Hess - You're Gonna Need Me
TTITLE20=Bennie Hess - Gone Mama Blues
TTITLE21=Bennie Hess - Side Track Blues
TTITLE22=Donald Simpson - Save Me Your Love
TTITLE23=Donald Simpson - Woe-on Baby
TTITLE24=Ray Dogget - Go Go Heart
TTITLE25=Ray Dogget - It Hurts The One Who Loves You
TTITLE26=Ray Dogget - No Doubt About It
TTITLE27=Meredith Neal - Getrude
TTITLE28=Carl Gilloin - Do Right Daddy(a.t.)
TTITLE29=Carl Gillion - Do Right Daddy
TTITLE30=Carl Greene - Nashville Boogie
EXTD=
EXTT0=
EXTT1=
EXTT2=
EXTT3=
EXTT4=
EXTT5=
EXTT6=
EXTT7=
EXTT8=
EXTT9=
EXTT10=
EXTT11=
EXTT12=
EXTT13=
EXTT14=
EXTT15=
EXTT16=
EXTT17=
EXTT18=
EXTT19=
EXTT20=
EXTT21=
EXTT22=
EXTT23=
EXTT24=
EXTT25=
EXTT26=
EXTT27=
EXTT28=
EXTT29=
EXTT30=
PLAYORDER=
